<svg width="54" height="50" viewBox="0 0 54 50" fill="none" xmlns="http://www.w3.org/2000/svg">
<g clip-path="url(#clip0)">
<path fill-rule="evenodd" clip-rule="evenodd" d="M45.6164 19.7774C40.274 13.8699 33.0411 10.1884 25.1507 9.50342C24.4932 9.41781 23.8356 8.73288 23.8356 7.96233V4.19521C23.8356 2.56849 22.9315 1.19863 21.4521 0.513699C20.8767 0.171233 20.2192 0 19.4795 0C18.3288 0 17.3425 0.428082 16.5205 1.11301L1.31507 14.9829C0.493151 15.7534 0 16.8664 0 17.9795C0 19.0925 0.493151 20.2055 1.31507 20.976L16.5205 34.7603C17.3425 35.5308 18.411 35.8733 19.4795 35.8733C20.137 35.8733 20.7945 35.7021 21.4521 35.4452C22.9315 34.7603 23.8356 33.3048 23.8356 31.7637V28.2534C23.8356 27.8253 24 27.3973 24.3288 27.1404C24.5753 26.8836 24.9863 26.7123 25.3151 26.7123C25.3973 26.7123 25.3973 26.7123 25.4795 26.7123C37.4795 28.0822 47.3425 36.9007 50.137 48.8014C50.3014 49.5719 50.9589 50.0856 51.6986 50C52.3562 49.9144 52.9315 49.4007 53.0959 48.7158C53.6712 46.2329 53.9178 43.75 53.9178 41.4384C54 33.3904 51.0411 25.6849 45.6164 19.7774ZM50.8767 38.5274C51.0411 39.4692 49.8082 39.8973 49.3151 39.0411C48.8219 38.0993 48.1644 37.0719 47.4247 36.0445C41.4247 27.9966 32.3836 23.3733 22.3562 23.3733C21.5343 23.3733 20.8767 24.0582 20.8767 24.9144V31.0788C20.8767 31.6781 20.5479 32.1918 19.9726 32.4486C19.8082 32.5342 19.5616 32.6199 19.3973 32.6199C19.0685 32.6199 18.6575 32.5342 18.411 32.2774L3.94521 19.1781C3.61644 18.8356 3.45205 18.4075 3.45205 17.9795C3.45205 17.5514 3.61644 17.1233 3.94521 16.7808L18.411 3.76712C18.6575 3.51027 18.9863 3.42466 19.3973 3.42466C19.6438 3.42466 19.8082 3.51027 20.0548 3.59589C20.5479 3.85274 20.8767 4.36644 20.8767 4.96575V10.9589C20.8767 11.8151 21.5343 12.5856 22.3562 12.5856C35.6712 12.5856 46.9315 21.8322 50.2192 34.8459C50.4658 35.7877 50.7123 37.1575 50.8767 38.5274Z" fill="#39424C"/>
</g>
<defs>
<clipPath id="clip0">
<rect width="54" height="50" fill="white"/>
</clipPath>
</defs>
</svg>
