<svg width="48" height="46" viewBox="0 0 48 46" fill="none" xmlns="http://www.w3.org/2000/svg">
<path d="M1.2256 21.3064C0.463997 22.1772 0 23.3267 0 24.5843C0 27.2952 2.1536 29.5012 4.8 29.5012H14.1163C13.1936 32.3694 12.8 36.175 12.8 37.8063V39.4442C12.8 43.0586 15.6715 46 19.2 46H20.8C21.5339 46 22.1739 45.4886 22.352 44.7588L23.2235 41.1869C24.4448 36.1848 28.3221 30.6659 32.3349 29.6629C33.0379 31.4854 34.7733 32.7791 36.8 32.7791H46.4C47.2832 32.7791 48 32.0448 48 31.1401V1.63895C48 0.734253 47.2832 0 46.4 0H36.8C34.8917 0 33.2405 1.14618 32.4672 2.80261L26.9696 0.925465C25.1723 0.311401 23.2992 0 21.4037 0H8C5.3536 0 3.2 2.20603 3.2 4.91686C3.2 5.55606 3.31947 6.16793 3.53707 6.72845C1.50187 7.29772 0 9.20874 0 11.4727C0 12.7303 0.463997 13.8798 1.2256 14.7506C0.463997 15.6214 0 16.7709 0 18.0285C0 19.2861 0.463997 20.4356 1.2256 21.3064ZM35.2 4.91686C35.2 4.01325 35.9179 3.27791 36.8 3.27791H44.8V29.5012H36.8C35.9179 29.5012 35.2 28.7658 35.2 27.8622V4.91686ZM8 19.6675H4.8C3.91787 19.6675 3.2 18.9321 3.2 18.0285C3.2 17.1249 3.91787 16.3895 4.8 16.3895H8C8.8832 16.3895 9.6 15.6553 9.6 14.7506C9.6 13.8459 8.8832 13.1116 8 13.1116H4.8C3.91787 13.1116 3.2 12.3763 3.2 11.4727C3.2 10.5691 3.91787 9.83373 4.8 9.83373H8C8.8832 9.83373 9.6 9.09948 9.6 8.19477C9.6 7.29007 8.8832 6.55582 8 6.55582C7.11787 6.55582 6.4 5.82048 6.4 4.91686C6.4 4.01325 7.11787 3.27791 8 3.27791H21.4037C22.9547 3.27791 24.4875 3.53249 25.9584 4.03511L32 6.098V26.3784C29.4901 26.8668 27.0336 28.4949 24.816 31.1598C22.6507 33.7625 20.8949 37.213 20.1195 40.3915L19.5509 42.7221H19.2C17.4357 42.7221 16 41.2514 16 39.4442V37.8063C16 35.6057 16.672 31.3849 17.5317 29.5012H20.8C21.6832 29.5012 22.4 28.7669 22.4 27.8622C22.4 26.9575 21.6832 26.2233 20.8 26.2233H4.8C3.91787 26.2233 3.2 25.4879 3.2 24.5843C3.2 23.6807 3.91787 22.9454 4.8 22.9454H8C8.8832 22.9454 9.6 22.2111 9.6 21.3064C9.6 20.4017 8.8832 19.6675 8 19.6675Z" fill="white"/>
<path d="M40 21.148C39.1163 21.148 38.4 21.8818 38.4 22.7869C38.4 23.6921 39.1163 24.4259 40 24.4259C40.8836 24.4259 41.6 23.6921 41.6 22.7869C41.6 21.8818 40.8836 21.148 40 21.148Z" fill="white"/>
</svg>
