<svg width="46" height="54" viewBox="0 0 46 54" fill="none" xmlns="http://www.w3.org/2000/svg">
<path d="M44.8255 33.4336C45.5553 32.593 46 31.4835 46 30.2695C46 27.6529 43.9361 25.5234 41.4 25.5234H32.4719C33.3561 22.7549 33.7333 19.0814 33.7333 17.5068V15.9258C33.7333 12.4369 30.9815 9.59766 27.6 9.59766H26.0667C25.3634 9.59766 24.75 10.0913 24.5793 10.7958L23.7442 14.2436C22.5737 19.0719 18.858 24.3991 15.0124 25.3673C14.3387 23.6081 12.6756 22.3594 10.7333 22.3594H1.53333C0.686933 22.3594 0 23.0681 0 23.9414V52.418C0 53.2912 0.686933 54 1.53333 54H10.7333C12.5621 54 14.1445 52.8936 14.8856 51.2947L20.1541 53.1067C21.8766 53.6994 23.6716 54 25.4881 54H38.3333C40.8695 54 42.9333 51.8706 42.9333 49.2539C42.9333 48.6369 42.8188 48.0463 42.6103 47.5052C44.5607 46.9557 46 45.1111 46 42.9258C46 41.7118 45.5553 40.6023 44.8255 39.7617C45.5553 38.9211 46 37.8116 46 36.5977C46 35.3837 45.5553 34.2742 44.8255 33.4336ZM12.2667 49.2539C12.2667 50.1261 11.5787 50.8359 10.7333 50.8359H3.06667V25.5234H10.7333C11.5787 25.5234 12.2667 26.2332 12.2667 27.1055V49.2539ZM38.3333 35.0156H41.4C42.2454 35.0156 42.9333 35.7254 42.9333 36.5977C42.9333 37.4699 42.2454 38.1797 41.4 38.1797H38.3333C37.4869 38.1797 36.8 38.8884 36.8 39.7617C36.8 40.635 37.4869 41.3438 38.3333 41.3438H41.4C42.2454 41.3438 42.9333 42.0536 42.9333 42.9258C42.9333 43.798 42.2454 44.5078 41.4 44.5078H38.3333C37.4869 44.5078 36.8 45.2166 36.8 46.0898C36.8 46.9631 37.4869 47.6719 38.3333 47.6719C39.1787 47.6719 39.8667 48.3817 39.8667 49.2539C39.8667 50.1261 39.1787 50.8359 38.3333 50.8359H25.4881C24.0018 50.8359 22.5328 50.5902 21.1232 50.105L15.3333 48.1138V28.5377C17.7386 28.0663 20.0928 26.4948 22.218 23.9224C24.2931 21.4102 25.9757 18.0795 26.7188 15.0114L27.2637 12.7617H27.6C29.2908 12.7617 30.6667 14.1813 30.6667 15.9258V17.5068C30.6667 19.6309 30.0227 23.7052 29.1988 25.5234H26.0667C25.2203 25.5234 24.5333 26.2322 24.5333 27.1055C24.5333 27.9788 25.2203 28.6875 26.0667 28.6875H41.4C42.2454 28.6875 42.9333 29.3973 42.9333 30.2695C42.9333 31.1418 42.2454 31.8516 41.4 31.8516H38.3333C37.4869 31.8516 36.8 32.5603 36.8 33.4336C36.8 34.3069 37.4869 35.0156 38.3333 35.0156Z" fill="white"/>
<path d="M7.6667 47.6719C8.51353 47.6719 9.20003 46.9636 9.20003 46.0898C9.20003 45.2161 8.51353 44.5078 7.6667 44.5078C6.81986 44.5078 6.13336 45.2161 6.13336 46.0898C6.13336 46.9636 6.81986 47.6719 7.6667 47.6719Z" fill="white"/>
<path d="M29.1333 0C28.2865 0 27.6 0.708328 27.6 1.58203V4.85156C27.6 5.72527 28.2865 6.43359 29.1333 6.43359C29.9801 6.43359 30.6666 5.72527 30.6666 4.85156V1.58203C30.6666 0.708328 29.9801 0 29.1333 0Z" fill="white"/>
<path d="M22.6279 6.97669L20.4595 4.73938C19.8608 4.12154 18.8899 4.12154 18.291 4.73938C17.6922 5.35721 17.6922 6.35885 18.291 6.97669L20.4595 9.21399C21.0582 9.83173 22.0292 9.83183 22.6279 9.21399C23.2267 8.59616 23.2267 7.59452 22.6279 6.97669Z" fill="white"/>
<path d="M39.9756 4.73938C39.3769 4.12154 38.406 4.12154 37.8071 4.73938L35.6387 6.97658C35.0399 7.59442 35.0399 8.59606 35.6387 9.21389C36.2374 9.83173 37.2083 9.83183 37.8071 9.214L39.9756 6.97669C40.5744 6.35885 40.5744 5.35721 39.9756 4.73938Z" fill="white"/>
</svg>
