<svg width="28" height="28" viewBox="0 0 28 28" fill="none" xmlns="http://www.w3.org/2000/svg">
<g clip-path="url(#clip0)">
<path d="M27.9849 1.01628C27.9721 0.915731 27.9499 0.818888 27.9131 0.728027C27.912 0.725749 27.912 0.722615 27.9114 0.719767C27.9114 0.719198 27.9108 0.718628 27.9103 0.718058C27.8698 0.622355 27.8146 0.535482 27.7522 0.454875C27.7368 0.435791 27.7217 0.416992 27.7055 0.399048C27.6388 0.323852 27.5665 0.254354 27.4825 0.197673C27.4802 0.195964 27.4773 0.195394 27.4751 0.193685C27.3939 0.140137 27.3042 0.0996908 27.2102 0.0677897C27.1868 0.0595296 27.164 0.0524089 27.1401 0.0461425C27.0415 0.0193685 26.9401 0 26.8333 0H18.6667C18.0227 0 17.5 0.522664 17.5 1.16667C17.5 1.81067 18.0227 2.33333 18.6667 2.33333H24.0164L17.0531 9.29659C15.1963 7.81148 12.9102 7 10.5 7C4.71053 7 0 11.7105 0 17.5C0 23.2895 4.71053 28 10.5 28C16.2895 28 21 23.2895 21 17.5C21 15.0909 20.1891 12.8054 18.7028 10.9469L25.6667 3.98307V9.33333C25.6667 9.97733 26.1893 10.5 26.8333 10.5C27.4773 10.5 28 9.97733 28 9.33333V1.16667C28 1.14217 27.9943 1.11882 27.9929 1.09489C27.9912 1.06812 27.9883 1.04248 27.9849 1.01628ZM10.5 25.6667C5.99654 25.6667 2.33333 22.0035 2.33333 17.5C2.33333 12.9965 5.99654 9.33333 10.5 9.33333C12.6804 9.33333 14.7332 10.1821 16.2767 11.7202C17.8179 13.2668 18.6667 15.3196 18.6667 17.5C18.6667 22.0035 15.0035 25.6667 10.5 25.6667Z" fill="#8E9399"/>
</g>
<defs>
<clipPath id="clip0">
<rect width="28" height="28" fill="white"/>
</clipPath>
</defs>
</svg>
