<svg width="44" height="44" viewBox="0 0 44 44" fill="none" xmlns="http://www.w3.org/2000/svg">
<g clip-path="url(#clip0)">
<path d="M44 20.46C44 17.82 41.8 15.62 39.38 15.62H27.5C28.38 13.2 28.82 10.56 29.04 7.91997C29.04 3.73997 25.52 0.219971 23.54 0.219971C22.22 0.219971 21.12 0.659971 20.24 1.31997C19.8 1.31997 19.58 1.75997 19.58 1.97997V8.57997L14.3 20.68L13.64 21.12L13.2 21.34V20.68C13.2 20.24 12.76 19.8 12.32 19.8H0.88C0.44 19.8 0 20.24 0 20.68V42.9C0 43.56 0.44 44 0.88 44H12.54C12.76 44 13.2 43.56 13.2 43.12V41.36C13.42 41.36 13.42 41.58 13.64 41.58C15.18 42.46 16.94 42.9 18.7 42.9H36.08C38.5 42.9 40.26 40.92 40.26 38.5C40.26 37.84 40.04 37.18 39.82 36.52C41.8 35.42 42.68 32.78 41.8 30.58C42.24 30.36 42.46 30.14 42.9 29.7C44.44 27.94 44.66 25.3 42.9 23.54C43.56 22.88 44 21.78 44 20.46ZM11.66 42.24H1.76V21.56H11.66V42.24ZM40.04 29.26C39.82 29.26 39.6 29.48 39.38 29.48C38.94 29.92 38.94 30.58 39.38 30.8C39.82 31.24 40.04 31.68 40.04 32.34C40.26 33.66 39.16 34.76 38.06 34.98C37.84 34.98 37.62 35.2 37.4 35.2C36.96 35.64 36.96 36.3 37.4 36.52C37.84 36.96 38.06 37.62 38.06 38.28C38.06 39.6 36.96 40.7 35.64 40.7H18.7C16.94 40.7 15.18 40.04 13.64 38.94C13.64 38.94 13.42 38.72 13.2 38.72V23.1H13.42H13.64L15.4 22.22C15.62 22.22 15.62 22 15.84 21.78L21.56 9.01997C21.56 8.79997 21.56 8.79997 21.56 8.57997V2.41997C22 2.19997 22.66 1.97997 23.32 1.97997C24.42 1.97997 27.06 4.61997 27.06 7.91997C26.84 10.78 26.18 13.64 25.3 16.28C25.3 16.28 25.3 16.5 25.3 16.72C25.3 17.16 25.74 17.6 26.18 17.6H39.38C40.26 17.6 41.14 18.04 41.8 18.92C42.68 20.24 42.24 22 40.92 22.88C40.7 22.88 40.7 23.1 40.48 23.32C40.26 23.76 40.48 24.42 40.92 24.64C41.58 25.08 42.02 25.74 42.24 26.62C42.24 27.94 41.36 29.04 40.04 29.26Z" fill="white"/>
</g>
<defs>
<clipPath id="clip0">
<rect width="44" height="44" fill="white"/>
</clipPath>
</defs>
</svg>
