<svg width="52" height="32" viewBox="0 0 52 32" fill="none" xmlns="http://www.w3.org/2000/svg">
<g clip-path="url(#clip0)">
<path d="M50.6347 20.0467L40.7683 25.5875C39.7134 26.2101 38.5344 26.4591 37.2934 26.4591C37.2313 26.4591 37.1693 26.4591 37.1693 26.4591C37.1072 26.4591 37.0452 26.4591 37.0452 26.4591C36.859 26.4591 36.7349 26.4591 36.5487 26.3969C36.2385 26.2723 36.0523 25.9611 36.1144 25.6498C36.1764 25.5253 36.2385 25.4008 36.3626 25.2762C36.4246 25.2762 36.4246 25.214 36.4867 25.214C36.5487 25.214 36.5487 25.214 36.6108 25.1517C36.6728 25.1517 36.797 25.1517 36.859 25.1517C38.038 25.2762 39.217 25.0272 40.2098 24.4669L50.0762 18.8638C50.8208 18.428 51.069 17.4941 50.6347 16.7471C50.4485 16.3735 50.0762 16.1245 49.6418 16C49.3316 15.9377 49.0833 15.5642 49.1454 15.2529C49.1454 15.1284 49.2695 15.0039 49.3936 14.8793C50.0762 14.3813 50.2003 13.4474 49.7039 12.7626C49.4557 12.4513 49.1454 12.2646 48.7731 12.14C48.4628 12.0778 48.2146 11.7043 48.2767 11.393C48.2767 11.2685 48.4008 11.1439 48.5249 11.0194C49.2074 10.5214 49.3316 9.58752 48.8351 8.9027C48.5249 8.4669 48.0285 8.21787 47.47 8.28013C47.1597 8.28013 46.8495 8.0311 46.7874 7.65756C46.7874 7.53305 46.7874 7.40853 46.8495 7.34628C47.3459 6.47468 46.9736 5.2918 46.0428 4.79375C45.4843 4.48246 44.8017 4.48246 44.2433 4.79375L36.797 9.02721C36.4867 9.21398 36.1144 9.08947 35.9282 8.77818C35.8662 8.71593 35.8662 8.65367 35.8662 8.59141C35.5559 6.78596 34.9354 4.98052 34.1287 3.29958C33.0738 1.49413 30.6538 0.933823 30.0953 1.24511C29.6609 1.55639 29.3507 1.86768 29.1645 2.24122L31.2122 5.7276C31.2743 5.78986 31.2743 5.91437 31.2743 5.97663L32.2671 14.8171C32.2671 14.9416 32.2671 15.1284 32.2051 15.1906L31.4604 16.3113C31.4604 16.3113 31.4604 16.3113 31.4604 16.3735C31.4604 16.4358 31.3984 16.4358 31.3984 16.4358C31.3984 16.4358 31.3363 16.498 31.2743 16.498C31.0881 16.6225 30.8399 16.6225 30.6538 16.4358C30.3435 16.249 30.2814 15.8755 30.4676 15.5642L30.6538 15.3151L30.7158 15.1906L30.7779 15.0661L31.0881 14.5681L30.0953 6.22565L27.9234 2.49024C27.8614 2.30347 27.7993 2.1167 27.8614 1.92993C28.1717 1.24511 28.7301 0.622539 29.4127 0.248998C30.6538 -0.435827 33.7564 0.435769 35.1836 2.80153C35.9903 4.35795 36.5487 5.97663 36.9211 7.5953L43.6227 3.79764C45.112 2.9883 46.9736 3.48635 47.9043 4.98052C48.2767 5.66534 48.4628 6.41242 48.2767 7.1595C49.7659 7.5953 50.6347 9.15172 50.2623 10.5836C50.2003 10.8949 50.0762 11.1439 49.9521 11.393C51.2552 12.2646 51.6275 14.0078 50.8208 15.2529C51.1931 15.5019 51.5034 15.8132 51.6896 16.1867C52.3721 17.5564 51.9378 19.2996 50.6347 20.0467Z" fill="white"/>
<path d="M24.0772 2.49024L21.9053 6.22565L20.9745 14.7548L21.2848 15.2529L21.3468 15.3774L21.4089 15.5019L21.5951 15.7509C21.7812 16 21.7192 16.4358 21.4089 16.6225C21.2227 16.7471 20.9745 16.7471 20.7884 16.6848C20.7263 16.6848 20.7263 16.6225 20.6643 16.6225L20.6022 16.5603C20.6022 16.5603 20.6022 16.5603 20.6022 16.498L19.8576 15.3774C19.7955 15.2529 19.7335 15.1284 19.7955 15.0039L20.7263 6.16339C20.7263 6.10114 20.7884 5.97662 20.7884 5.91437L22.8361 2.42799C22.65 1.86767 22.3397 1.55639 21.9674 1.30736C21.4089 0.996079 18.9889 1.55639 17.934 3.36184C17.1273 5.04277 16.5068 6.78596 16.1965 8.65367C16.1965 8.71592 16.1344 8.77818 16.1344 8.84044C15.9483 9.15172 15.576 9.27623 15.2657 9.08946L7.8194 4.856C7.26093 4.54472 6.57835 4.54472 6.01988 4.856C5.08909 5.35406 4.71678 6.47468 5.2132 7.40853C5.27525 7.53304 5.27525 7.5953 5.27525 7.71981C5.27525 8.0311 4.96499 8.34238 4.59267 8.34238C4.0342 8.34238 3.53778 8.59141 3.22751 8.96495C2.7311 9.64978 2.8552 10.6459 3.53778 11.0817C3.66188 11.2062 3.72394 11.3307 3.78599 11.4552C3.84804 11.7665 3.66188 12.14 3.28957 12.2023C2.91725 12.2646 2.60699 12.5136 2.35878 12.8249C1.86236 13.5097 1.98647 14.5058 2.66904 14.9416C2.79315 15.0039 2.8552 15.1284 2.91725 15.3151C2.97931 15.6264 2.79315 16 2.42083 16.0622C2.04852 16.1867 1.6762 16.4358 1.49005 16.8093C1.05568 17.5564 1.30389 18.4902 2.04852 18.926L11.9149 24.5292C12.9077 25.0895 14.0867 25.3385 15.2657 25.214C15.3278 25.214 15.4519 25.214 15.5139 25.214C15.576 25.214 15.576 25.214 15.638 25.2762C15.7001 25.2762 15.7001 25.2762 15.7621 25.3385C15.8862 25.4007 15.9483 25.5253 16.0103 25.712C16.0724 26.0233 15.8862 26.3969 15.576 26.4591C15.3898 26.4591 15.2657 26.5214 15.0795 26.5214C15.0175 26.5214 14.9554 26.5214 14.9554 26.5214C14.8934 26.5214 14.8313 26.5214 14.8313 26.5214C13.5903 26.5836 12.4113 26.2723 11.3564 25.6498L1.36594 20.0467C0.0628374 19.2996 -0.37153 17.6186 0.435152 16.249C0.683362 15.8755 0.993625 15.5642 1.30389 15.3151C0.497205 14.07 0.86952 12.3268 2.17262 11.4552C1.98646 11.2062 1.86236 10.8949 1.80031 10.6459C1.42799 9.15172 2.29673 7.65756 3.78599 7.22176C3.59983 6.47468 3.78599 5.66534 4.1583 5.04277C5.02704 3.54861 6.95067 2.9883 8.43993 3.85989L15.1416 7.65756C15.4519 5.97662 16.0724 4.35795 16.8791 2.86378C18.2442 0.498025 21.4089 -0.373571 22.65 0.311254C23.3325 0.684795 23.891 1.30736 24.2013 2.05444C24.2013 2.17896 24.1392 2.36573 24.0772 2.49024Z" fill="white"/>
<path d="M37.7278 27.4552L37.2314 26.5836L37.1694 26.4591C37.1073 26.4591 37.0453 26.4591 37.0453 26.4591C36.8591 26.4591 36.735 26.4591 36.5488 26.3968C36.2386 26.2723 36.0524 25.9611 36.1145 25.6498C36.1765 25.5253 36.2386 25.4007 36.3627 25.2762C36.4247 25.2762 36.4247 25.214 36.4868 25.214L36.4247 25.0895L31.4605 16.6225L31.3985 16.498C31.3985 16.498 31.3364 16.5603 31.2744 16.5603C31.0882 16.6848 30.84 16.6848 30.6539 16.498C30.3436 16.3112 30.2815 15.9377 30.4677 15.6264L30.6539 15.3774L30.7159 15.2529L30.6539 15.1284L30.5297 14.9416C30.3436 14.6303 30.0333 14.5681 29.7231 14.6926L26.1861 16.6848L26.062 16.747L25.9379 16.6848L22.3388 14.7548C22.0906 14.6303 21.7183 14.6926 21.5321 15.0039L21.346 15.3151L21.408 15.4397L21.5942 15.6887C21.7803 15.9377 21.7183 16.3735 21.408 16.5603C21.2219 16.6848 20.9737 16.6848 20.7875 16.6225C20.7255 16.6225 20.7255 16.5603 20.6634 16.5603L15.513 25.2762C15.5751 25.2762 15.5751 25.2762 15.6371 25.3385C15.7613 25.4007 15.8233 25.5253 15.8854 25.712C15.9474 26.0233 15.7613 26.3968 15.451 26.4591C15.2648 26.4591 15.1407 26.5214 14.9546 26.5214C14.8925 26.5214 14.8305 26.5214 14.8305 26.5214L14.2099 27.5175C14.0238 27.8288 14.0858 28.14 14.3961 28.3268L20.9116 32C21.1598 32.1245 21.5321 32.0622 21.7183 31.7509L25.9379 24.5914L25.9999 24.4669L26.062 24.5914L30.2815 31.7509C30.4677 32.0622 30.778 32.1245 31.0882 32L37.6037 28.3268C37.8519 28.0778 37.914 27.7042 37.7278 27.4552ZM25.9999 22.2879L25.3794 23.3463L24.6968 24.5291L21.0978 30.6303L15.513 27.4552L22.2147 16.0622L23.3937 16.747L23.704 16.9338L24.8209 17.5564L26.062 18.2412L26.6825 18.6147L27.8615 19.2996L27.241 20.2957L25.9999 22.2879ZM30.9021 30.6303L26.6825 23.4708L26.6204 23.3463L26.6825 23.2218L29.0405 19.2373C29.2266 18.926 29.1646 18.6147 28.8543 18.428L27.303 17.5564L27.1789 17.4941L27.303 17.4319L29.7851 16.0622L36.4868 27.4552L30.9021 30.6303Z" fill="white"/>
</g>
<defs>
<clipPath id="clip0">
<rect width="52" height="32" fill="white"/>
</clipPath>
</defs>
</svg>
