<svg width="44" height="44" viewBox="0 0 44 44" fill="none" xmlns="http://www.w3.org/2000/svg">
<g clip-path="url(#clip0)">
<path d="M3.8147e-06 20.46C3.8147e-06 17.82 2.2 15.62 4.62 15.62H16.5C15.62 13.2 15.18 10.56 14.96 7.91997C14.96 3.73997 18.48 0.219971 20.46 0.219971C21.78 0.219971 22.88 0.659971 23.76 1.31997C24.2 1.31997 24.42 1.75997 24.42 1.97997V8.57997L29.7 20.68L30.36 21.12L30.8 21.34V20.68C30.8 20.24 31.24 19.8 31.68 19.8H43.12C43.56 19.8 44 20.24 44 20.68V42.9C44 43.56 43.56 44 43.12 44H31.46C31.24 44 30.8 43.56 30.8 43.12V41.36C30.58 41.36 30.58 41.58 30.36 41.58C28.82 42.46 27.06 42.9 25.3 42.9H7.92001C5.5 42.9 3.74001 40.92 3.74001 38.5C3.74001 37.84 3.96 37.18 4.18 36.52C2.2 35.42 1.32 32.78 2.2 30.58C1.76 30.36 1.54 30.14 1.1 29.7C-0.439995 27.94 -0.659996 25.3 1.1 23.54C0.440002 22.88 3.8147e-06 21.78 3.8147e-06 20.46ZM32.34 42.24H42.24V21.56H32.34V42.24ZM3.96 29.26C4.18 29.26 4.40001 29.48 4.62 29.48C5.06001 29.92 5.06001 30.58 4.62 30.8C4.18 31.24 3.96 31.68 3.96 32.34C3.74 33.66 4.84 34.76 5.94001 34.98C6.16 34.98 6.38 35.2 6.6 35.2C7.04 35.64 7.04 36.3 6.6 36.52C6.16 36.96 5.94001 37.62 5.94001 38.28C5.94001 39.6 7.04 40.7 8.36 40.7H25.3C27.06 40.7 28.82 40.04 30.36 38.94C30.36 38.94 30.58 38.72 30.8 38.72V23.1H30.58H30.36L28.6 22.22C28.38 22.22 28.38 22 28.16 21.78L22.44 9.01997C22.44 8.79997 22.44 8.79997 22.44 8.57997V2.41997C22 2.19997 21.34 1.97997 20.68 1.97997C19.58 1.97997 16.94 4.61997 16.94 7.91997C17.16 10.78 17.82 13.64 18.7 16.28C18.7 16.28 18.7 16.5 18.7 16.72C18.7 17.16 18.26 17.6 17.82 17.6H4.62C3.74001 17.6 2.86 18.04 2.2 18.92C1.32 20.24 1.76 22 3.08 22.88C3.3 22.88 3.3 23.1 3.52 23.32C3.74001 23.76 3.52 24.42 3.08 24.64C2.42 25.08 1.98 25.74 1.76 26.62C1.76 27.94 2.64 29.04 3.96 29.26Z" fill="white"/>
</g>
<defs>
<clipPath id="clip0">
<rect width="44" height="44" transform="matrix(-1 0 0 1 44 0)" fill="white"/>
</clipPath>
</defs>
</svg>
