<svg width="30" height="30" viewBox="0 0 30 30" fill="none" xmlns="http://www.w3.org/2000/svg">
<mask id="path-1-inside-1" fill="white">
<path fill-rule="evenodd" clip-rule="evenodd" d="M16.6667 26.6667H24.1667V20H16.6667V26.6667ZM5.83328 26.6667H13.3333V20H5.83328V26.6667ZM3.33332 10.3333C3.33332 10.195 3.35499 10.0833 3.37665 9.99996H8.57165H13.3333V16.6666H3.37665C3.35499 16.5833 3.33332 16.4716 3.33332 16.3333V10.3333ZM6.66664 4.99999C6.66664 4.07999 7.52164 3.33332 8.57164 3.33332C10.6666 3.33332 11.95 5.14999 12.6566 6.66665H8.57164C7.52164 6.66665 6.66664 5.91999 6.66664 4.99999ZM21.4284 3.33332C22.4785 3.33332 23.3335 4.07999 23.3335 4.99999C23.3335 5.91999 22.4785 6.66665 21.4284 6.66665H17.3335C18.0335 5.14999 19.3134 3.33332 21.4284 3.33332ZM26.6667 10.3333V16.3333C26.6667 16.4716 26.6451 16.5833 26.6234 16.6666H16.6667V9.99996H21.4284H26.6234C26.6451 10.0833 26.6667 10.195 26.6667 10.3333ZM27 6.66667H26.345C26.5417 6.14333 26.6667 5.58833 26.6667 5C26.6667 2.24333 24.3167 0 21.4283 0C18.225 0 16.215 1.99833 15 3.995C13.785 1.99833 11.775 0 8.57167 0C5.68333 0 3.33333 2.24333 3.33333 5C3.33333 5.58833 3.46 6.14333 3.655 6.66667H3C1.31833 6.66667 0 8.27833 0 10.3333V16.3333C0 18.1783 1.06667 19.655 2.5 19.94V27.2217C2.5 28.7533 3.855 30 5.52 30H24.4783C26.145 30 27.5 28.7533 27.5 27.2217V19.94C28.9333 19.655 30 18.1783 30 16.3333V10.3333C30 8.27833 28.6817 6.66667 27 6.66667Z"/>
</mask>
<path fill-rule="evenodd" clip-rule="evenodd" d="M16.6667 26.6667H24.1667V20H16.6667V26.6667ZM5.83328 26.6667H13.3333V20H5.83328V26.6667ZM3.33332 10.3333C3.33332 10.195 3.35499 10.0833 3.37665 9.99996H8.57165H13.3333V16.6666H3.37665C3.35499 16.5833 3.33332 16.4716 3.33332 16.3333V10.3333ZM6.66664 4.99999C6.66664 4.07999 7.52164 3.33332 8.57164 3.33332C10.6666 3.33332 11.95 5.14999 12.6566 6.66665H8.57164C7.52164 6.66665 6.66664 5.91999 6.66664 4.99999ZM21.4284 3.33332C22.4785 3.33332 23.3335 4.07999 23.3335 4.99999C23.3335 5.91999 22.4785 6.66665 21.4284 6.66665H17.3335C18.0335 5.14999 19.3134 3.33332 21.4284 3.33332ZM26.6667 10.3333V16.3333C26.6667 16.4716 26.6451 16.5833 26.6234 16.6666H16.6667V9.99996H21.4284H26.6234C26.6451 10.0833 26.6667 10.195 26.6667 10.3333ZM27 6.66667H26.345C26.5417 6.14333 26.6667 5.58833 26.6667 5C26.6667 2.24333 24.3167 0 21.4283 0C18.225 0 16.215 1.99833 15 3.995C13.785 1.99833 11.775 0 8.57167 0C5.68333 0 3.33333 2.24333 3.33333 5C3.33333 5.58833 3.46 6.14333 3.655 6.66667H3C1.31833 6.66667 0 8.27833 0 10.3333V16.3333C0 18.1783 1.06667 19.655 2.5 19.94V27.2217C2.5 28.7533 3.855 30 5.52 30H24.4783C26.145 30 27.5 28.7533 27.5 27.2217V19.94C28.9333 19.655 30 18.1783 30 16.3333V10.3333C30 8.27833 28.6817 6.66667 27 6.66667Z" fill="#8E9399"/>
<path d="M16.6667 26.6667H16.1667V27.1667H16.6667V26.6667ZM24.1667 26.6667V27.1667H24.6667V26.6667H24.1667ZM24.1667 20H24.6667V19.5H24.1667V20ZM16.6667 20V19.5H16.1667V20H16.6667ZM5.83328 26.6667H5.33328V27.1667H5.83328V26.6667ZM13.3333 26.6667V27.1667H13.8333V26.6667H13.3333ZM13.3333 20H13.8333V19.5H13.3333V20ZM5.83328 20V19.5H5.33328V20H5.83328ZM3.37665 9.99996V9.49996H2.99003L2.89274 9.87414L3.37665 9.99996ZM13.3333 9.99996H13.8333V9.49996H13.3333V9.99996ZM13.3333 16.6666V17.1666H13.8333V16.6666H13.3333ZM3.37665 16.6666L2.89274 16.7924L2.99003 17.1666H3.37665V16.6666ZM12.6566 6.66665V7.16665H13.4412L13.1099 6.45548L12.6566 6.66665ZM17.3335 6.66665L16.8795 6.45712L16.552 7.16665H17.3335V6.66665ZM26.6234 16.6666V17.1666H27.01L27.1073 16.7924L26.6234 16.6666ZM16.6667 16.6666H16.1667V17.1666H16.6667V16.6666ZM16.6667 9.99996V9.49996H16.1667V9.99996H16.6667ZM26.6234 9.99996L27.1073 9.87414L27.01 9.49996H26.6234V9.99996ZM26.345 6.66667L25.877 6.49078L25.623 7.16667H26.345V6.66667ZM15 3.995L14.5729 4.25492L15 4.95685L15.4271 4.25492L15 3.995ZM3.655 6.66667V7.16667H4.37489L4.12353 6.49209L3.655 6.66667ZM2.5 19.94H3V19.5296L2.59751 19.4496L2.5 19.94ZM27.5 19.94L27.4025 19.4496L27 19.5296V19.94H27.5ZM16.6667 27.1667H24.1667V26.1667H16.6667V27.1667ZM24.6667 26.6667V20H23.6667V26.6667H24.6667ZM24.1667 19.5H16.6667V20.5H24.1667V19.5ZM16.1667 20V26.6667H17.1667V20H16.1667ZM5.83328 27.1667H13.3333V26.1667H5.83328V27.1667ZM13.8333 26.6667V20H12.8333V26.6667H13.8333ZM13.3333 19.5H5.83328V20.5H13.3333V19.5ZM5.33328 20V26.6667H6.33328V20H5.33328ZM3.83332 10.3333C3.83332 10.2486 3.84635 10.1805 3.86057 10.1258L2.89274 9.87414C2.86362 9.98614 2.83332 10.1413 2.83332 10.3333H3.83332ZM3.37665 10.5H8.57165V9.49996H3.37665V10.5ZM8.57165 10.5H13.3333V9.49996H8.57165V10.5ZM12.8333 9.99996V16.6666H13.8333V9.99996H12.8333ZM13.3333 16.1666H3.37665V17.1666H13.3333V16.1666ZM3.86057 16.5408C3.84635 16.4861 3.83332 16.418 3.83332 16.3333H2.83332C2.83332 16.5252 2.86362 16.6805 2.89274 16.7924L3.86057 16.5408ZM3.83332 16.3333V10.3333H2.83332V16.3333H3.83332ZM7.16664 4.99999C7.16664 4.41706 7.73264 3.83332 8.57164 3.83332V2.83332C7.31065 2.83332 6.16664 3.74292 6.16664 4.99999H7.16664ZM8.57164 3.83332C10.3414 3.83332 11.5033 5.3751 12.2034 6.87782L13.1099 6.45548C12.3967 4.92487 10.9919 2.83332 8.57164 2.83332V3.83332ZM12.6566 6.16665H8.57164V7.16665H12.6566V6.16665ZM8.57164 6.16665C7.73264 6.16665 7.16664 5.58292 7.16664 4.99999H6.16664C6.16664 6.25706 7.31065 7.16665 8.57164 7.16665V6.16665ZM21.4284 3.83332C22.2675 3.83332 22.8335 4.41706 22.8335 4.99999H23.8335C23.8335 3.74292 22.6894 2.83332 21.4284 2.83332V3.83332ZM22.8335 4.99999C22.8335 5.58292 22.2675 6.16665 21.4284 6.16665V7.16665C22.6894 7.16665 23.8335 6.25706 23.8335 4.99999H22.8335ZM21.4284 6.16665H17.3335V7.16665H21.4284V6.16665ZM17.7874 6.87618C18.4797 5.37622 19.6383 3.83332 21.4284 3.83332V2.83332C18.9886 2.83332 17.5872 4.92375 16.8795 6.45712L17.7874 6.87618ZM26.1667 10.3333V16.3333H27.1667V10.3333H26.1667ZM26.1667 16.3333C26.1667 16.418 26.1537 16.4861 26.1395 16.5408L27.1073 16.7924C27.1364 16.6805 27.1667 16.5252 27.1667 16.3333H26.1667ZM26.6234 16.1666H16.6667V17.1666H26.6234V16.1666ZM17.1667 16.6666V9.99996H16.1667V16.6666H17.1667ZM16.6667 10.5H21.4284V9.49996H16.6667V10.5ZM21.4284 10.5H26.6234V9.49996H21.4284V10.5ZM26.1395 10.1258C26.1537 10.1805 26.1667 10.2486 26.1667 10.3333H27.1667C27.1667 10.1413 27.1364 9.98614 27.1073 9.87414L26.1395 10.1258ZM27 6.16667H26.345V7.16667H27V6.16667ZM26.813 6.84256C27.0262 6.27544 27.1667 5.66041 27.1667 5H26.1667C26.1667 5.51626 26.0572 6.01123 25.877 6.49078L26.813 6.84256ZM27.1667 5C27.1667 1.94552 24.5706 -0.5 21.4283 -0.5V0.5C24.0627 0.5 26.1667 2.54115 26.1667 5H27.1667ZM21.4283 -0.5C17.9775 -0.5 15.8328 1.66459 14.5729 3.73508L15.4271 4.25492C16.5972 2.33208 18.4725 0.5 21.4283 0.5V-0.5ZM15.4271 3.73508C14.1672 1.66459 12.0225 -0.5 8.57167 -0.5V0.5C11.5275 0.5 13.4028 2.33208 14.5729 4.25492L15.4271 3.73508ZM8.57167 -0.5C5.42937 -0.5 2.83333 1.94552 2.83333 5H3.83333C3.83333 2.54115 5.9373 0.5 8.57167 0.5V-0.5ZM2.83333 5C2.83333 5.66121 2.97586 6.27602 3.18647 6.84125L4.12353 6.49209C3.94414 6.01065 3.83333 5.51546 3.83333 5H2.83333ZM3.655 6.16667H3V7.16667H3.655V6.16667ZM3 6.16667C0.953028 6.16667 -0.5 8.10072 -0.5 10.3333H0.5C0.5 8.45595 1.68364 7.16667 3 7.16667V6.16667ZM-0.5 10.3333V16.3333H0.5V10.3333H-0.5ZM-0.5 16.3333C-0.5 18.3489 0.674369 20.0868 2.40249 20.4304L2.59751 19.4496C1.45896 19.2232 0.5 18.0078 0.5 16.3333H-0.5ZM2 19.94V27.2217H3V19.94H2ZM2 27.2217C2 29.0679 3.61892 30.5 5.52 30.5V29.5C4.09108 29.5 3 28.4388 3 27.2217H2ZM5.52 30.5H24.4783V29.5H5.52V30.5ZM24.4783 30.5C26.3809 30.5 28 29.0681 28 27.2217H27C27 28.4386 25.9091 29.5 24.4783 29.5V30.5ZM28 27.2217V19.94H27V27.2217H28ZM27.5975 20.4304C29.3256 20.0868 30.5 18.3489 30.5 16.3333H29.5C29.5 18.0078 28.541 19.2232 27.4025 19.4496L27.5975 20.4304ZM30.5 16.3333V10.3333H29.5V16.3333H30.5ZM30.5 10.3333C30.5 8.10072 29.047 6.16667 27 6.16667V7.16667C28.3164 7.16667 29.5 8.45595 29.5 10.3333H30.5Z" fill="#F5F6F7" mask="url(#path-1-inside-1)"/>
</svg>
