<svg width="26" height="26" viewBox="0 0 26 26" fill="none" xmlns="http://www.w3.org/2000/svg">
<path fill-rule="evenodd" clip-rule="evenodd" d="M13 18.7892C13.1908 18.7892 13.3816 18.8373 13.5556 18.9323L18.0786 21.4266L17.2182 16.1633C17.1498 15.7505 17.2806 15.3301 17.5662 15.0377L21.2096 11.3203L16.1658 10.5454C15.7757 10.4859 15.4385 10.2289 15.2633 9.85664L13 5.05293L10.7367 9.85664C10.5615 10.2289 10.2243 10.4859 9.83426 10.5454L4.79044 11.3203L8.4338 15.0377C8.71941 15.3301 8.85022 15.7505 8.78182 16.1633L7.92138 21.4266L12.4444 18.9323C12.6184 18.8373 12.8092 18.7892 13 18.7892ZM19.6747 24.9996C19.4839 24.9996 19.2931 24.9527 19.1191 24.8565L13 21.4835L6.88092 24.8565C6.4753 25.0793 5.98568 25.0401 5.61967 24.7565C5.25005 24.4729 5.06644 23.993 5.14324 23.5182L6.3097 16.3924L1.36547 11.3469C1.03546 11.0113 0.917852 10.5074 1.05826 10.0478C1.19747 9.58819 1.57428 9.25393 2.0267 9.18429L8.86821 8.13593L11.9248 1.64573C12.3304 0.784757 13.6696 0.784757 14.0752 1.64573L17.1318 8.13593L23.9733 9.18429C24.4257 9.25393 24.8025 9.58819 24.9417 10.0478C25.0821 10.5074 24.9645 11.0113 24.6345 11.3469L19.6903 16.3924L20.8568 23.5182C20.9336 23.993 20.75 24.4729 20.3803 24.7565C20.1727 24.9185 19.9243 24.9996 19.6747 24.9996Z" fill="#39424D"/>
<path d="M13.5556 18.9323L13.7971 18.4945L13.7951 18.4934L13.5556 18.9323ZM18.0786 21.4266L17.8372 21.8644L18.7381 22.3612L18.5721 21.3459L18.0786 21.4266ZM17.2182 16.1633L17.7116 16.0826L17.7115 16.0815L17.2182 16.1633ZM17.5662 15.0377L17.2091 14.6877L17.2085 14.6883L17.5662 15.0377ZM21.2096 11.3203L21.5667 11.6703L22.249 10.9741L21.2855 10.8261L21.2096 11.3203ZM16.1658 10.5454L16.2417 10.0512L16.2412 10.0511L16.1658 10.5454ZM15.2633 9.85664L15.7157 9.64371L15.7156 9.64353L15.2633 9.85664ZM13 5.05293L13.4523 4.83982L13 3.87982L12.5477 4.83982L13 5.05293ZM10.7367 9.85664L10.2844 9.64353L10.2843 9.64371L10.7367 9.85664ZM9.83426 10.5454L9.75885 10.0511L9.75834 10.0512L9.83426 10.5454ZM4.79044 11.3203L4.71451 10.8261L3.75104 10.9741L4.43335 11.6703L4.79044 11.3203ZM8.4338 15.0377L8.79153 14.6883L8.79089 14.6877L8.4338 15.0377ZM8.78182 16.1633L8.28854 16.0815L8.28837 16.0826L8.78182 16.1633ZM7.92138 21.4266L7.42793 21.3459L7.26195 22.3612L8.16283 21.8644L7.92138 21.4266ZM12.4444 18.9323L12.2049 18.4934L12.2029 18.4945L12.4444 18.9323ZM19.1191 24.8565L19.361 24.419L19.3604 24.4186L19.1191 24.8565ZM13 21.4835L13.2414 21.0456L13 20.9126L12.7586 21.0456L13 21.4835ZM6.88092 24.8565L7.12168 25.2947L7.12229 25.2944L6.88092 24.8565ZM5.61967 24.7565L5.92592 24.3612L5.92404 24.3598L5.61967 24.7565ZM5.14324 23.5182L4.64981 23.4374L4.64966 23.4384L5.14324 23.5182ZM6.3097 16.3924L6.80313 16.4732L6.84403 16.2233L6.66682 16.0424L6.3097 16.3924ZM1.36547 11.3469L1.72259 10.9969L1.72194 10.9962L1.36547 11.3469ZM1.05826 10.0478L1.53644 10.1939L1.53679 10.1927L1.05826 10.0478ZM2.0267 9.18429L1.95097 8.69006L1.95064 8.69011L2.0267 9.18429ZM8.86821 8.13593L8.94395 8.63017L9.20712 8.58984L9.32056 8.34897L8.86821 8.13593ZM11.9248 1.64573L11.4724 1.43263L11.4724 1.4327L11.9248 1.64573ZM14.0752 1.64573L14.5276 1.4327L14.5276 1.43263L14.0752 1.64573ZM17.1318 8.13593L16.6794 8.34897L16.7929 8.58984L17.0561 8.63017L17.1318 8.13593ZM23.9733 9.18429L24.0494 8.69011L24.049 8.69006L23.9733 9.18429ZM24.9417 10.0478L24.4632 10.1927L24.4636 10.1939L24.9417 10.0478ZM24.6345 11.3469L24.2781 10.9962L24.2774 10.9969L24.6345 11.3469ZM19.6903 16.3924L19.3332 16.0424L19.156 16.2233L19.1969 16.4732L19.6903 16.3924ZM20.8568 23.5182L21.3503 23.4384L21.3502 23.4374L20.8568 23.5182ZM20.3803 24.7565L20.0759 24.3598L20.0727 24.3624L20.3803 24.7565ZM13 19.2892C13.1065 19.2892 13.215 19.316 13.3161 19.3712L13.7951 18.4934C13.5483 18.3587 13.2752 18.2892 13 18.2892V19.2892ZM13.3142 19.3701L17.8372 21.8644L18.3201 20.9887L13.7971 18.4945L13.3142 19.3701ZM18.5721 21.3459L17.7116 16.0826L16.7247 16.2439L17.5852 21.5072L18.5721 21.3459ZM17.7115 16.0815C17.6686 15.8227 17.7518 15.5633 17.9239 15.387L17.2085 14.6883C16.8094 15.097 16.631 15.6783 16.7249 16.245L17.7115 16.0815ZM17.9233 15.3876L21.5667 11.6703L20.8525 10.9703L17.2091 14.6877L17.9233 15.3876ZM21.2855 10.8261L16.2417 10.0512L16.0898 11.0396L21.1337 11.8145L21.2855 10.8261ZM16.2412 10.0511C16.0237 10.018 15.8234 9.87254 15.7157 9.64371L14.8109 10.0696C15.0536 10.5852 15.5278 10.9539 16.0903 11.0397L16.2412 10.0511ZM15.7156 9.64353L13.4523 4.83982L12.5477 5.26604L14.811 10.0698L15.7156 9.64353ZM12.5477 4.83982L10.2844 9.64353L11.189 10.0698L13.4523 5.26604L12.5477 4.83982ZM10.2843 9.64371C10.1766 9.87254 9.97635 10.018 9.75885 10.0511L9.90968 11.0397C10.4722 10.9539 10.9464 10.5852 11.1891 10.0696L10.2843 9.64371ZM9.75834 10.0512L4.71451 10.8261L4.86636 11.8145L9.91019 11.0396L9.75834 10.0512ZM4.43335 11.6703L8.07671 15.3876L8.79089 14.6877L5.14753 10.9703L4.43335 11.6703ZM8.07607 15.387C8.24822 15.5633 8.33144 15.8227 8.28854 16.0815L9.27509 16.245C9.369 15.6783 9.19061 15.097 8.79153 14.6883L8.07607 15.387ZM8.28837 16.0826L7.42793 21.3459L8.41483 21.5072L9.27527 16.2439L8.28837 16.0826ZM8.16283 21.8644L12.6858 19.3701L12.2029 18.4945L7.67993 20.9887L8.16283 21.8644ZM12.6839 19.3712C12.785 19.316 12.8936 19.2892 13 19.2892V18.2892C12.7248 18.2892 12.4518 18.3587 12.2049 18.4934L12.6839 19.3712ZM19.6747 24.4996C19.5662 24.4996 19.4589 24.4731 19.361 24.419L18.8771 25.2941C19.1272 25.4324 19.4016 25.4996 19.6747 25.4996V24.4996ZM19.3604 24.4186L13.2414 21.0456L12.7586 21.9214L18.8777 25.2944L19.3604 24.4186ZM12.7586 21.0456L6.63955 24.4186L7.12229 25.2944L13.2414 21.9214L12.7586 21.0456ZM6.64017 24.4183C6.40983 24.5448 6.13505 24.5233 5.92592 24.3612L5.31341 25.1517C5.83632 25.5569 6.54078 25.6139 7.12167 25.2947L6.64017 24.4183ZM5.92404 24.3598C5.70716 24.1934 5.58799 23.9 5.63683 23.598L4.64966 23.4384C4.54489 24.086 4.79293 24.7523 5.31529 25.1532L5.92404 24.3598ZM5.63668 23.599L6.80313 16.4732L5.81626 16.3116L4.64981 23.4374L5.63668 23.599ZM6.66682 16.0424L1.72259 10.9969L1.00835 11.6968L5.95258 16.7423L6.66682 16.0424ZM1.72194 10.9962C1.52532 10.7963 1.44757 10.4848 1.53644 10.1939L0.580075 9.90172C0.388133 10.53 0.5456 11.2263 1.009 11.6975L1.72194 10.9962ZM1.53679 10.1927C1.62316 9.90758 1.85036 9.71733 2.10277 9.67847L1.95064 8.69011C1.29821 8.79054 0.77177 9.2688 0.579727 9.90286L1.53679 10.1927ZM2.10244 9.67852L8.94395 8.63017L8.79248 7.6417L1.95097 8.69006L2.10244 9.67852ZM9.32056 8.34897L12.3771 1.85876L11.4724 1.4327L8.41587 7.9229L9.32056 8.34897ZM12.3771 1.85882C12.482 1.6361 12.7185 1.5 13 1.5C13.2815 1.5 13.518 1.6361 13.6229 1.85882L14.5276 1.43263C14.2269 0.794385 13.591 0.5 13 0.5C12.409 0.5 11.7731 0.794385 11.4724 1.43263L12.3771 1.85882ZM13.6229 1.85876L16.6794 8.34897L17.5841 7.9229L14.5276 1.4327L13.6229 1.85876ZM17.0561 8.63017L23.8976 9.67852L24.049 8.69006L17.2075 7.6417L17.0561 8.63017ZM23.8972 9.67847C24.1496 9.71733 24.3768 9.90758 24.4632 10.1927L25.4203 9.90286C25.2282 9.26881 24.7018 8.79054 24.0494 8.69011L23.8972 9.67847ZM24.4636 10.1939C24.5524 10.4848 24.4747 10.7963 24.2781 10.9962L24.991 11.6975C25.4544 11.2263 25.6119 10.53 25.4199 9.90172L24.4636 10.1939ZM24.2774 10.9969L19.3332 16.0424L20.0474 16.7423L24.9916 11.6968L24.2774 10.9969ZM19.1969 16.4732L20.3633 23.599L21.3502 23.4374L20.1837 16.3116L19.1969 16.4732ZM20.3632 23.598C20.412 23.9 20.2928 24.1934 20.076 24.3598L20.6847 25.1532C21.2071 24.7523 21.4551 24.086 21.3503 23.4384L20.3632 23.598ZM20.0727 24.3624C19.9551 24.4541 19.8156 24.4996 19.6747 24.4996V25.4996C20.033 25.4996 20.3904 25.383 20.688 25.1506L20.0727 24.3624Z" fill="white"/>
</svg>
