<svg width="22" height="22" viewBox="0 0 22 22" fill="none" xmlns="http://www.w3.org/2000/svg">
<path d="M15.375 21H20.625C20.8321 21 21 20.8106 21 20.5769V10.4231C21 10.1894 20.8321 10 20.625 10H15.375C15.1679 10 15 10.1894 15 10.4231V20.5769C15 20.8106 15.1679 21 15.375 21ZM20.25 20.1539H15.75V10.8461H20.25V20.1539Z" fill="#5355C3" stroke="#5355C3" stroke-width="0.4"/>
<path d="M4.62505 20.5H12.5148C13.549 20.4914 14.5526 20.135 15.3756 19.4842C15.5393 19.3082 15.5345 19.0276 15.3651 18.8576C15.1999 18.6917 14.9378 18.6917 14.7726 18.8576C14.1095 19.3383 13.3232 19.6016 12.5148 19.6136H4.62505C4.0364 19.6131 3.55933 19.1174 3.55886 18.5057C3.55906 18.2013 3.68108 17.9107 3.89578 17.7035C4.06735 17.5358 4.07562 17.2553 3.91426 17.077C3.84513 17.0006 3.75213 16.9522 3.65185 16.9403C3.07143 16.8766 2.65062 16.3359 2.712 15.7328C2.73878 15.4694 2.85629 15.2249 3.04285 15.0444C3.21441 14.8767 3.22269 14.5962 3.06132 14.4179C2.99219 14.3415 2.89919 14.2931 2.79892 14.2813C2.21842 14.2181 1.79713 13.6779 1.8579 13.0746C1.89552 12.7013 2.11403 12.3738 2.43728 12.2062C2.64659 12.094 2.72871 11.8267 2.62068 11.6092C2.58513 11.5375 2.53144 11.4774 2.46543 11.4351C1.86574 11.0468 1.68254 10.2268 2.05625 9.60358C2.28807 9.21701 2.69416 8.98068 3.13245 8.97724H9.10304C9.33857 8.97711 9.52941 8.77859 9.52929 8.53383C9.52925 8.47999 9.51981 8.4266 9.50134 8.37628C9.05238 7.14666 8.77467 5.85667 8.67655 4.54544C8.67655 3.09358 9.91503 1.88635 10.3825 1.88635C10.6816 1.89138 10.9748 1.97393 11.2354 2.12654V4.9886C11.2355 5.05283 11.2488 5.11632 11.2746 5.17473L13.8335 10.9361C13.8741 11.0272 13.9433 11.1013 14.0297 11.1462L14.8826 11.5894C15.0934 11.6988 15.3496 11.6099 15.4549 11.3908C15.5602 11.1717 15.4747 10.9055 15.2639 10.7961L14.5448 10.422L12.0883 4.89196V1.88635C12.0884 1.75148 12.0294 1.62393 11.928 1.5398C11.4793 1.19727 10.9391 1.00856 10.3824 1C9.39554 1 7.82357 2.62292 7.82357 4.54544C7.88782 5.75496 8.1176 6.94876 8.50595 8.09089H3.13237C1.9547 8.09089 1.00001 9.08298 1.00001 10.3068C0.998689 10.8568 1.19664 11.3871 1.55444 11.7923C0.811973 12.5688 0.815771 13.8236 1.56291 14.5952C1.70641 14.7434 1.8717 14.8669 2.05253 14.9611C1.58395 15.9404 1.96525 17.129 2.90547 17.6202C2.77321 17.8954 2.70484 18.199 2.70588 18.5066C2.7078 19.607 3.56605 20.4985 4.62505 20.5Z" fill="#5355C3" stroke="#5355C3" stroke-width="0.4"/>
</svg>
