<svg width="64" height="60" viewBox="0 0 64 60" fill="none" xmlns="http://www.w3.org/2000/svg">
<path fill-rule="evenodd" clip-rule="evenodd" d="M32 0C40.2592 0 47.536 5.98312 50.16 14.5706C57.9648 15.7629 64 23.3129 64 32.4191C64 36.8173 62.5792 41.0498 60 44.3385C59.3664 45.1418 58.4864 45.556 57.6 45.556C56.848 45.556 56.0928 45.2607 55.4816 44.6555C54.16 43.3335 54.032 41.0606 55.2032 39.5657C56.7488 37.5989 57.6 35.0558 57.6 32.4191C57.6 26.4612 53.2928 21.6127 48 21.6127H47.68C46.1568 21.6127 44.8448 20.4024 44.544 18.7202C43.3472 12.0491 38.0736 7.20424 32 7.20424C25.9296 7.20424 20.6528 12.0491 19.4592 18.7202C19.1584 20.4024 17.8432 21.6127 16.32 21.6127H16C10.7072 21.6127 6.4 26.4612 6.4 32.4191C6.4 35.0558 7.2512 37.5989 8.8 39.5657C9.968 41.0606 9.8432 43.3335 8.5184 44.6555C7.1936 45.9739 5.1712 45.8262 4.0032 44.3385C1.4208 41.0498 0 36.8173 0 32.4191C0 23.3129 6.0352 15.7629 13.84 14.5706C16.4672 5.98312 23.744 0 32 0ZM29.7765 24.9873C31.0373 23.6329 33.0309 23.6437 34.2629 25.0342L43.8629 35.8405C45.1141 37.2489 45.1141 39.5255 43.8629 40.9339C43.2389 41.6363 42.4197 41.9893 41.6005 41.9893C40.7813 41.9893 39.9621 41.6363 39.3381 40.9339L35.2005 36.2764V56.3978C35.2005 58.3898 33.7669 59.9999 32.0005 59.9999C30.2341 59.9999 28.8005 58.3898 28.8005 56.3978V36.0675L24.6245 40.6061C23.3541 41.9929 21.3285 41.9461 20.0997 40.5161C18.8709 39.0824 18.9061 36.8059 20.1765 35.4227L29.7765 24.9873Z" fill="white"/>
</svg>
