<svg width="31" height="31" viewBox="0 0 31 31" fill="none" xmlns="http://www.w3.org/2000/svg">
<g clip-path="url(#clip0)">
<path d="M22.7816 17.5691C26.7967 13.5553 26.7967 7.02425 22.7816 3.01042C18.7665 -1.00347 12.2335 -1.00347 8.21836 3.01042C4.20325 7.02425 4.20325 13.5553 8.21836 17.5691C9.91791 19.2681 12.0686 20.2477 14.2884 20.5084V23.9549H11.8655C11.1964 23.9549 10.654 24.4972 10.654 25.166C10.654 25.8349 11.1964 26.3772 11.8655 26.3772H14.2884V29.7889C14.2885 30.4577 14.8309 31 15.5 31C16.1691 31 16.7115 30.4577 16.7115 29.7889V26.3772H19.1345C19.8036 26.3772 20.346 25.8349 20.346 25.166C20.346 24.4972 19.8036 23.9549 19.1345 23.9549H16.7115V20.5085C18.9314 20.2477 21.0821 19.2681 22.7816 17.5691ZM9.93172 15.8563C6.86132 12.7869 6.86132 7.79259 9.93172 4.72317C13.002 1.65387 17.9978 1.65369 21.0683 4.72317C24.1387 7.79259 24.1387 12.7869 21.0683 15.8563C17.998 18.9257 13.0021 18.9257 9.93172 15.8563Z" fill="#8E9399"/>
</g>
<defs>
<clipPath id="clip0">
<rect width="31" height="31" fill="white"/>
</clipPath>
</defs>
</svg>
